<?xml version="1.0" standalone="no"?>
<!DOCTYPE svg PUBLIC "-//W3C//DTD SVG 20010904//EN"
 "http://www.w3.org/TR/2001/REC-SVG-20010904/DTD/svg10.dtd">
<svg version="1.0" xmlns="http://www.w3.org/2000/svg"
 width="1000.000000pt" height="1000.000000pt" viewBox="0 0 1000.000000 1000.000000"
 preserveAspectRatio="xMidYMid meet">
<metadata>
Created by potrace 1.14, written by Peter Selinger 2001-2017
</metadata>
<g transform="translate(0.000000,1000.000000) scale(0.100000,-0.100000)"
fill="#000000" stroke="none">
<path d="M0 9383 l1 -618 20 60 c36 106 148 327 224 440 120 180 197 259 388
405 84 64 144 95 307 160 58 23 113 51 123 63 16 18 29 21 110 20 95 -1 319
-40 380 -67 l32 -14 -30 -1 c-26 -1 -18 -8 58 -49 106 -56 414 -281 511 -372
82 -77 172 -193 228 -293 22 -40 55 -93 73 -118 22 -31 30 -50 23 -57 -5 -5
-8 -22 -6 -38 2 -23 20 -42 88 -92 47 -35 92 -75 100 -88 8 -14 26 -28 40 -31
14 -3 56 -21 94 -40 77 -39 110 -38 128 3 11 23 9 29 -25 60 -35 33 -36 37
-22 57 9 12 20 39 26 60 8 30 7 43 -7 66 -17 28 -16 31 9 91 15 34 36 101 46
148 35 157 118 324 231 465 63 79 176 189 243 238 62 46 170 98 217 105 23 4
54 17 69 30 l26 23 -1852 1 -1853 0 0 -617z m2500 -127 c42 -12 46 -16 55 -59
6 -25 16 -52 23 -59 15 -15 16 -48 1 -48 -7 0 -10 -18 -7 -50 1 -28 0 -50 -4
-50 -8 0 -66 71 -93 113 -15 24 -16 32 -5 52 12 23 10 35 -15 98 -8 20 -11 20
45 3z"/>
<path d="M4715 9986 l30 -13 -55 -6 c-30 -4 -71 -7 -90 -7 -70 0 -84 -53 -20
-70 l40 -11 -70 -72 c-39 -40 -85 -95 -101 -124 -17 -29 -57 -75 -89 -103 -61
-53 -91 -101 -92 -150 -1 -17 -4 -30 -9 -30 -4 0 -5 -9 -2 -20 3 -11 10 -20
15 -20 5 0 7 4 4 9 -3 5 5 9 18 9 56 0 132 59 276 219 35 40 66 70 68 68 3 -2
32 15 66 38 33 23 64 42 68 42 3 0 10 3 14 8 4 4 16 7 26 7 10 0 18 5 18 10 0
6 8 10 19 10 10 0 24 7 31 14 6 8 31 23 56 32 24 9 42 20 39 24 -2 3 1 7 8 7
7 0 50 6 97 12 47 6 147 18 223 26 80 9 210 34 310 59 l172 44 -232 1 c-127 1
-265 -3 -305 -8 -173 -23 -208 -24 -208 -7 0 14 -22 16 -177 16 -154 -1 -174
-3 -148 -14z m215 -131 c0 -8 -3 -14 -7 -13 -14 3 -57 -14 -95 -39 -21 -13
-38 -20 -38 -16 0 5 -4 3 -8 -2 -4 -6 -19 -18 -34 -28 -21 -13 -28 -14 -28 -4
0 7 6 19 13 26 10 11 7 13 -16 9 -33 -6 -32 -5 36 43 46 33 59 38 115 38 49 1
62 -2 62 -14z"/>
<path d="M7717 9916 c-58 -178 -223 -467 -309 -540 -32 -28 -39 -40 -34 -59 5
-23 42 -47 70 -47 8 0 38 -11 67 -24 89 -40 411 -107 609 -126 417 -41 733
-30 948 32 40 12 75 19 78 16 10 -11 -25 -243 -50 -323 -80 -268 -267 -638
-459 -910 -120 -168 -354 -425 -389 -425 -6 0 -35 18 -64 41 -56 43 -87 47
-92 13 -2 -16 29 -52 125 -144 147 -140 222 -199 325 -252 114 -59 218 -89
338 -96 l105 -7 -88 -53 c-143 -85 -225 -123 -347 -159 l-115 -34 -135 9 c-74
5 -166 9 -205 9 -46 0 -103 9 -165 26 -52 15 -125 35 -163 46 -37 10 -70 15
-73 10 -3 -5 -9 -7 -13 -5 -20 12 -1 -39 23 -65 23 -24 25 -30 12 -35 -21 -8
-6 -35 28 -54 35 -18 33 -26 -10 -33 -28 -5 -43 -1 -62 13 -13 11 -30 20 -37
20 -15 0 -25 45 -25 115 0 57 -21 129 -47 157 -18 20 -53 24 -53 7 0 -6 -9 -9
-20 -6 -11 3 -20 1 -20 -4 0 -5 -4 -9 -9 -9 -13 0 -26 37 -30 85 -1 13 -4 16
-9 8 -6 -9 -11 -6 -21 8 -10 17 -10 20 1 14 7 -4 -15 20 -50 54 -67 66 -87 74
-95 39 -19 -76 63 -212 170 -283 53 -35 80 -45 67 -24 -4 7 -1 10 7 7 19 -6
27 -41 28 -120 1 -70 -9 -85 -30 -45 -20 38 -56 69 -65 56 -5 -8 -3 -10 7 -5
8 4 6 1 -3 -7 -14 -11 -16 -20 -8 -46 5 -17 9 -34 9 -36 1 -12 35 -70 47 -83
8 -7 14 -25 14 -39 0 -15 7 -34 15 -43 12 -14 13 -37 4 -161 -5 -79 -18 -175
-29 -214 -22 -83 -50 -257 -50 -315 0 -28 -4 -40 -15 -40 -22 0 -84 -59 -105
-101 -11 -20 -24 -58 -30 -84 -14 -60 -14 -203 -1 -237 6 -15 6 -28 1 -30 -13
-4 20 -67 41 -79 13 -7 19 -6 19 1 0 6 18 -1 39 -16 51 -33 140 -43 194 -21
36 16 38 15 52 -6 20 -30 45 -105 45 -132 0 -18 -7 -24 -33 -29 -72 -14 -157
-125 -157 -207 0 -50 48 -138 90 -167 31 -21 44 -23 105 -19 39 3 80 8 92 12
19 6 22 2 33 -48 26 -114 -5 -333 -49 -357 -10 -5 -40 -62 -66 -127 -166 -407
-291 -602 -550 -853 -54 -52 -166 -163 -249 -246 -83 -83 -203 -194 -266 -246
-222 -183 -245 -208 -630 -672 -36 -43 -96 -120 -135 -171 -38 -51 -86 -113
-105 -138 -25 -33 -42 -46 -60 -47 -14 0 -38 -9 -55 -20 -16 -11 -38 -20 -48
-20 -10 0 -32 -7 -49 -16 -17 -9 -61 -27 -97 -41 -133 -50 -147 -51 -328 -42
-92 5 -178 7 -191 4 -12 -3 -72 10 -136 30 -62 20 -188 51 -280 69 l-166 34
-57 48 c-32 26 -101 90 -153 141 -195 190 -431 352 -965 662 -346 201 -427
264 -740 576 -148 149 -313 318 -366 375 -108 118 -239 290 -273 359 -27 53
-86 239 -118 367 -29 120 -31 301 -4 394 28 98 27 112 -11 122 -37 10 -37 11
-22 40 6 11 9 22 6 24 -6 6 -76 -34 -107 -61 l-25 -22 -32 22 -32 22 49 59
c58 69 103 134 97 140 -18 18 -164 -84 -219 -154 -16 -20 -34 -40 -40 -43 -11
-7 17 -39 34 -39 6 0 8 -13 4 -36 -6 -32 -3 -39 28 -69 20 -19 36 -41 36 -50
0 -8 11 -21 25 -27 22 -10 30 -8 55 10 l30 22 4 -22 c3 -13 8 -59 11 -103 3
-44 19 -156 35 -249 31 -177 29 -196 -11 -196 -11 0 -19 -5 -19 -10 0 -6 -10
-24 -22 -40 -16 -23 -21 -45 -22 -97 -1 -54 -6 -74 -25 -100 -13 -17 -24 -40
-25 -50 -1 -10 -6 -34 -10 -54 -10 -45 13 -95 50 -109 14 -6 42 -23 62 -39 20
-16 48 -32 61 -36 38 -11 156 -70 208 -103 27 -16 75 -38 108 -47 33 -10 77
-24 98 -33 32 -13 40 -14 47 -2 12 20 76 -24 176 -122 78 -76 105 -117 119
-183 8 -37 116 -144 154 -151 40 -9 139 -84 174 -131 17 -24 28 -45 26 -47 -3
-3 -25 -10 -51 -17 -38 -11 -51 -10 -79 3 -19 9 -60 24 -92 33 -55 16 -60 16
-77 0 -24 -22 -36 -97 -21 -133 25 -60 166 -140 363 -206 65 -22 97 -40 87
-50 -2 -2 -37 -7 -76 -11 -72 -7 -73 -7 -83 19 -6 18 -17 26 -32 26 -39 0 -99
-21 -105 -36 -4 -10 -15 -13 -37 -9 -17 2 -137 9 -266 15 -158 7 -245 15 -265
25 -123 56 -165 60 -165 16 0 -20 -35 -31 -102 -31 -34 0 -39 3 -34 17 4 9 29
78 57 153 66 180 66 180 83 180 19 0 28 30 32 105 1 33 16 114 33 180 17 66
31 125 31 132 0 22 -55 76 -97 95 -23 10 -129 36 -234 58 -339 70 -462 110
-754 247 -93 44 -177 82 -185 85 -10 3 -1 14 29 34 127 84 290 272 375 435
l48 90 44 -7 c51 -7 74 6 74 42 0 25 -5 30 -81 89 -126 98 -246 227 -401 431
-142 187 -408 593 -408 622 0 5 24 16 53 22 87 21 273 88 370 134 143 66 256
139 424 270 20 15 43 19 116 20 72 1 99 5 125 21 17 10 32 24 32 30 0 5 -18
26 -41 46 l-42 35 12 65 c6 35 17 66 23 68 22 7 74 67 92 106 11 23 19 66 20
113 3 64 13 105 61 241 57 162 58 166 48 229 l-9 64 39 38 c41 38 45 64 13 76
-17 7 -192 -62 -278 -109 -52 -29 -60 -30 -91 -19 -46 17 -56 15 -93 -13 -36
-28 -64 -32 -64 -11 0 15 54 79 104 125 83 75 157 153 166 176 15 39 -6 73
-53 86 -49 13 -111 53 -132 85 -9 14 -35 34 -58 45 -29 14 -51 36 -70 67 -15
26 -39 65 -52 87 -24 38 -33 85 -17 85 4 -1 40 -46 81 -101 41 -56 80 -103 88
-106 19 -7 43 16 43 41 0 27 -105 184 -161 242 -39 39 -40 42 -30 83 10 48 16
56 39 56 61 0 118 287 128 640 3 116 12 266 20 335 17 151 8 222 -40 324 -19
39 -39 88 -46 109 -14 43 -34 57 -74 50 -18 -4 -41 2 -68 17 -35 20 -50 22
-111 17 -171 -15 -318 -142 -403 -351 -106 -261 -199 -898 -179 -1236 12 -206
17 -226 99 -392 41 -84 94 -209 118 -277 24 -69 66 -165 93 -215 41 -74 63
-101 123 -150 81 -67 100 -92 84 -108 -12 -12 -159 34 -357 112 -184 73 -208
82 -235 87 -14 2 -32 13 -40 24 -25 31 -138 298 -160 374 -11 39 -31 97 -44
130 l-26 60 0 -3672 0 -3673 1659 0 1658 0 8 98 c4 53 7 126 6 161 -2 67 31
226 53 256 16 22 142 -36 426 -195 85 -48 169 -101 186 -119 20 -21 44 -34 70
-38 21 -3 71 -22 109 -41 39 -19 119 -54 178 -78 108 -44 110 -44 230 -44
l122 1 -110 34 c-60 18 -147 49 -192 69 -85 36 -261 122 -278 136 -5 4 -46 27
-90 50 -44 23 -154 86 -245 140 -91 53 -186 109 -211 123 -25 14 -70 45 -99
68 -52 41 -52 42 -48 88 4 40 51 160 94 242 12 24 11 28 -9 48 -29 26 -35 26
-63 0 -31 -29 -58 -18 -74 32 -16 47 -78 106 -150 142 -38 19 -72 52 -146 143
-91 111 -129 154 -196 225 -20 22 -29 45 -37 101 -31 210 -51 370 -51 403 l0
37 58 -33 c31 -17 104 -57 162 -88 58 -31 122 -69 143 -85 l39 -30 -7 40 c-9
51 -41 169 -65 240 -11 32 -18 59 -15 62 2 2 28 -15 57 -39 87 -72 453 -384
613 -524 384 -334 560 -451 714 -476 32 -5 78 -18 102 -28 65 -29 154 -40 340
-42 128 -1 177 2 210 14 24 8 75 22 114 31 69 16 70 16 87 -6 53 -71 265 37
486 247 65 62 112 116 128 147 13 27 44 68 67 91 23 24 51 62 61 86 12 26 22
37 27 30 12 -19 37 -3 71 47 l33 46 11 -70 c6 -39 17 -79 25 -90 8 -10 43 -57
77 -103 35 -46 74 -104 87 -129 13 -25 32 -54 43 -65 40 -43 234 -379 272
-472 46 -112 51 -158 18 -166 -16 -5 -36 8 -86 53 -76 70 -155 117 -211 126
-23 4 -41 4 -41 1 0 -3 30 -27 68 -53 37 -27 110 -91 163 -144 87 -87 96 -100
109 -152 10 -46 11 -71 1 -135 -18 -109 -74 -277 -116 -347 -19 -32 -35 -60
-35 -62 0 -2 24 -4 54 -4 l54 0 32 76 c35 86 67 200 75 277 3 29 13 85 22 126
14 61 14 80 4 115 -18 59 -29 126 -21 126 25 0 168 -245 311 -532 l94 -188
1382 0 1383 0 0 5000 0 5000 -1128 0 -1128 0 -27 -84z m-139 -586 c12 -19 11
-20 -15 -14 -37 9 -40 13 -23 24 21 13 24 13 38 -10z m1202 -1454 c0 -39 -3
-45 -30 -56 -17 -7 -32 -11 -34 -9 -4 4 54 109 60 109 2 0 4 -20 4 -44z m-398
-431 c-3 -17 -10 -25 -20 -23 -25 5 -25 24 0 36 13 6 24 11 24 11 1 1 -1 -10
-4 -24z m917 -381 c41 -34 39 -51 -9 -65 -35 -11 -42 -10 -60 6 -12 11 -20 31
-20 52 0 30 3 33 29 33 17 0 42 -11 60 -26z m-1349 -509 c0 -2 -47 -36 -105
-75 -58 -39 -105 -68 -105 -66 0 3 -18 -14 -40 -37 l-40 -42 6 55 c10 83 27
107 56 77 14 -16 47 -11 49 7 1 6 2 22 2 36 2 22 8 25 67 36 75 13 110 16 110
9z m1529 -79 c44 -23 49 -48 43 -203 -3 -100 -1 -147 7 -157 6 -7 39 -19 74
-25 34 -7 77 -17 94 -22 70 -22 95 -102 49 -155 -19 -23 -32 -28 -80 -31 -31
-1 -75 -7 -97 -13 l-42 -12 7 -97 c4 -54 16 -135 26 -180 29 -118 27 -156 -9
-192 -23 -22 -39 -29 -70 -29 -59 0 -97 38 -117 115 -16 62 -101 235 -116 235
-5 0 -25 -11 -46 -24 -91 -57 -207 -108 -245 -108 -65 1 -103 37 -111 104 -6
53 11 85 152 277 10 15 6 24 -31 62 -23 24 -60 57 -82 74 -102 74 -117 108
-72 160 34 40 87 39 226 -7 64 -21 123 -38 132 -38 10 0 50 51 100 126 45 69
92 132 103 140 26 18 69 18 105 0z m-9091 -64 c14 -19 16 -32 2 -32 -14 0 -90
75 -90 90 0 13 64 -30 88 -58z m741 -547 c-3 -2 -30 -17 -60 -33 -30 -15 -85
-45 -123 -67 -38 -21 -66 -33 -62 -27 9 16 217 132 235 132 8 0 12 -2 10 -5z
m6686 -197 c8 -8 -13 -20 -84 -48 l-52 -20 -9 26 c-22 56 -17 59 64 54 41 -3
77 -8 81 -12z m585 -308 c-25 -296 -86 -566 -166 -741 -49 -106 -50 -132 -9
-151 19 -9 41 -46 32 -55 -2 -1 -16 4 -31 12 -60 31 -81 7 -45 -52 36 -60 242
-342 298 -408 28 -32 51 -62 51 -66 0 -4 -26 -28 -57 -54 -32 -25 -124 -107
-205 -182 -176 -162 -252 -224 -378 -308 -188 -126 -352 -196 -561 -239 -68
-15 -134 -28 -146 -31 -27 -6 -46 -39 -38 -65 3 -10 22 -24 42 -31 34 -11 35
-13 29 -48 -3 -20 -6 -69 -6 -108 0 -71 -1 -73 -24 -73 -23 0 -24 -3 -19 -37
3 -23 15 -46 29 -58 22 -19 24 -28 24 -123 0 -56 -2 -102 -5 -102 -2 0 -30 7
-62 16 -217 58 -196 55 -303 38 -157 -27 -191 -5 -119 74 24 26 70 69 102 95
57 47 58 50 52 87 -6 37 -5 39 30 56 35 16 36 18 19 31 -29 21 -64 15 -101
-17 -18 -17 -38 -30 -44 -30 -18 0 87 117 276 305 187 188 433 459 544 599
167 212 216 315 282 600 28 120 36 142 63 166 30 28 30 29 27 127 -3 139 -20
226 -85 433 -18 58 -41 137 -50 175 -10 39 -20 79 -24 90 -5 20 -5 20 16 2 24
-22 87 -46 119 -47 14 0 58 32 121 88 54 49 147 130 208 182 l109 94 8 -60 c5
-34 3 -113 -3 -184z m-581 184 c2 -2 2 -5 0 -6 -2 -2 -20 -18 -40 -36 l-36
-33 -22 41 c-11 22 -21 43 -21 46 0 7 112 -5 119 -12z m1761 -1121 c0 -24 -25
-9 -28 17 -3 21 -2 22 12 11 9 -7 16 -20 16 -28z m-7820 -640 c0 -18 -7 -17
-46 13 -27 21 -32 29 -23 41 10 12 17 9 41 -13 15 -15 28 -34 28 -41z m7194
-77 c19 -8 48 -36 71 -67 21 -30 77 -105 123 -167 72 -94 88 -111 106 -106 12
3 73 29 136 56 63 28 131 55 150 59 76 18 140 -30 140 -105 0 -50 -17 -79
-104 -174 -37 -40 -78 -91 -92 -114 l-26 -40 23 -27 c66 -75 119 -127 166
-162 82 -61 106 -141 59 -196 -34 -40 -102 -38 -183 4 -32 17 -102 50 -157 72
-82 34 -101 39 -114 29 -23 -19 -129 -184 -168 -261 -22 -43 -37 -88 -41 -128
-10 -101 -74 -145 -152 -105 -47 25 -49 41 -44 337 3 172 1 283 -5 299 -8 21
-25 31 -85 49 -64 20 -87 23 -151 17 -127 -11 -172 30 -154 142 10 57 41 102
72 102 8 0 16 6 19 14 7 17 138 116 185 140 24 13 37 14 52 6 22 -12 22 -12
24 170 1 98 17 133 69 155 40 18 41 18 81 1z m-8072 -375 l33 -30 -20 -37
c-29 -54 -51 -65 -76 -35 -22 26 -26 100 -7 119 19 19 35 15 70 -17z m1696
-333 c14 -14 16 -48 4 -48 -8 0 -32 43 -32 55 0 9 16 5 28 -7z m827 -613 c44
-26 71 -44 60 -41 -11 2 -39 10 -61 16 -34 8 -154 92 -154 106 0 6 59 -25 155
-81z m-105 7 c-7 -3 -19 3 -28 13 -16 15 -15 16 12 4 15 -7 23 -15 16 -17z
m5682 -189 c26 -23 23 -103 -5 -103 -37 0 -63 80 -35 108 15 15 18 15 40 -5z
m-4637 -713 c3 -6 -1 -7 -9 -4 -18 7 -21 14 -7 14 6 0 13 -4 16 -10z m575
-320 c36 -4 58 -8 50 -9 -34 -5 -160 1 -187 9 -24 7 -21 8 22 8 28 0 79 -4
115 -8z"/>
<path d="M7187 3194 c-21 -14 -36 -31 -34 -37 6 -18 53 -11 76 12 22 22 26 32
14 30 -20 -3 -26 2 -13 11 8 5 10 10 5 10 -6 0 -27 -12 -48 -26z"/>
<path d="M6205 9759 c-404 -42 -878 -251 -1120 -494 -82 -82 -162 -196 -171
-242 -9 -47 7 -42 67 25 180 194 289 280 490 386 201 106 448 187 674 221 105
16 360 21 369 7 2 -4 -43 -57 -102 -118 -115 -118 -211 -240 -315 -400 -36
-56 -90 -129 -119 -164 -91 -107 -100 -126 -72 -154 23 -24 53 -19 91 14 46
41 62 40 353 -6 136 -22 377 -68 585 -114 217 -47 432 -86 538 -95 42 -4 77
-10 77 -14 -1 -9 -153 -121 -267 -195 -127 -83 -359 -196 -478 -233 -82 -25
-104 -27 -245 -27 -117 0 -173 4 -227 18 -40 10 -119 20 -175 22 -157 5 -426
4 -493 -2 -56 -5 -62 -9 -74 -36 -22 -49 -9 -53 185 -56 130 -2 175 -6 171
-15 -2 -7 -19 -56 -36 -110 -31 -92 -51 -127 -72 -127 -5 0 -9 11 -9 25 0 14
-4 25 -9 25 -16 0 -41 -143 -43 -255 -3 -114 8 -148 28 -87 10 31 28 51 47 52
15 0 6 -26 -19 -53 l-25 -28 23 -19 c54 -45 85 -19 134 117 25 67 29 73 55 73
16 0 57 15 91 34 35 19 107 48 162 66 84 28 109 32 170 28 98 -7 173 -44 256
-127 36 -36 79 -74 97 -85 17 -12 63 -61 103 -111 67 -85 146 -164 163 -165 4
0 4 26 0 57 -6 54 -26 101 -130 298 -35 67 -185 214 -273 266 -39 23 -69 43
-67 46 2 2 42 10 88 18 46 8 97 17 113 21 28 6 28 6 8 -14 -10 -10 -31 -22
-44 -25 -28 -7 -41 -28 -32 -52 3 -8 26 -17 50 -21 34 -5 47 -12 56 -32 55
-114 444 -166 777 -103 116 22 182 55 216 108 11 17 36 41 56 52 20 12 40 28
43 37 10 25 7 59 -6 72 -17 17 -91 15 -134 -3 -46 -19 -173 -45 -221 -45 -57
0 -66 10 -47 48 14 30 14 35 -3 69 -14 29 -27 40 -58 50 -51 15 -167 16 -256
2 -39 -6 -73 -9 -75 -6 -3 3 12 15 33 28 88 52 276 191 387 284 65 55 132 110
148 121 16 12 26 24 21 27 -5 3 -44 10 -87 16 -99 14 -184 36 -261 67 -33 14
-130 39 -215 55 -85 17 -216 45 -290 64 -74 18 -189 43 -254 55 l-120 23 45
17 c30 12 46 14 51 7 8 -13 79 33 75 50 -1 6 40 41 92 78 190 134 249 197 251
262 0 14 20 39 54 69 53 46 67 67 59 92 -7 20 -55 14 -98 -13 -22 -13 -58 -34
-80 -46 -118 -64 -500 -331 -509 -356 -11 -29 3 -54 27 -47 16 3 29 -2 45 -18
l22 -24 -44 -12 c-35 -9 -43 -15 -40 -29 5 -17 -6 -18 -163 -15 -92 2 -169 5
-171 7 -3 2 40 55 95 117 198 227 278 337 269 373 -7 29 85 131 195 216 43 34
79 67 79 73 0 6 -7 20 -15 30 -13 17 -18 18 -53 7 -30 -10 -62 -10 -147 -2
-121 12 -202 12 -320 0z m857 -1639 c12 -11 53 -32 92 -47 88 -33 100 -43 54
-43 -20 0 -43 -2 -51 -6 -8 -3 -28 7 -46 22 -17 14 -57 34 -88 44 l-57 17 30
16 c38 21 41 21 66 -3z m-99 -41 c5 -3 -6 -6 -23 -7 -17 0 -46 -3 -63 -6 -21
-4 -16 0 18 13 28 10 52 16 55 12 3 -3 9 -9 13 -12z"/>
<path d="M5292 8698 c-7 -7 -12 -24 -12 -39 0 -19 -6 -30 -20 -34 -26 -8 -27
-56 -1 -79 26 -24 63 -15 122 28 42 31 45 36 44 76 -1 33 -6 45 -21 51 -30 12
-99 10 -112 -3z"/>
<path d="M4138 8170 c-37 -5 -116 -20 -175 -35 -337 -84 -914 -385 -1147 -598
-45 -41 -144 -132 -221 -202 -77 -71 -171 -148 -210 -173 -84 -53 -114 -80
-126 -109 -19 -51 29 -101 79 -82 12 5 52 31 89 59 36 28 128 82 204 121 137
68 307 165 573 326 221 134 236 140 440 179 219 42 558 92 681 100 68 5 106 2
154 -11 145 -38 292 -127 356 -216 34 -47 39 -51 68 -45 17 4 44 18 59 33 33
31 39 26 57 -42 14 -58 23 -70 47 -61 14 6 16 16 11 74 -6 74 -49 278 -75 356
-18 52 -28 61 -51 47 -12 -8 -12 -21 -1 -84 7 -41 11 -80 8 -87 -2 -7 -28 42
-58 109 -49 111 -59 128 -118 182 -36 32 -88 69 -116 83 -61 28 -209 63 -326
76 -94 11 -105 11 -202 0z m398 -150 c66 -23 161 -77 168 -96 6 -16 4 -15
-134 56 -122 63 -130 73 -34 40z m-656 -220 c8 -5 12 -12 8 -15 -8 -9 -209
-48 -214 -42 -9 9 123 55 186 66 3 0 12 -3 20 -9z"/>
<path d="M5708 7844 c-12 -18 -29 -147 -23 -171 7 -29 23 -30 30 0 8 31 2 184
-7 171z"/>
<path d="M5146 7772 c-6 -10 18 -148 33 -184 24 -62 50 -9 31 63 -26 101 -49
145 -64 121z"/>
<path d="M3084 6779 c-117 -11 -282 -53 -370 -94 -143 -66 -263 -171 -223
-196 7 -4 16 -6 21 -3 4 2 50 33 102 68 52 35 125 76 163 91 118 47 394 84
633 85 110 1 114 2 86 16 -66 36 -239 50 -412 33z"/>
<path d="M6701 6764 c-19 -8 -31 -17 -27 -21 4 -4 44 -7 89 -8 74 0 90 -4 158
-38 85 -41 89 -43 89 -23 0 16 -49 55 -107 85 -50 25 -150 28 -202 5z"/>
<path d="M3736 6663 c-9 -9 49 -66 154 -153 226 -186 405 -420 490 -640 l21
-55 -32 40 c-137 170 -368 335 -399 284 -13 -19 5 -45 90 -135 42 -45 154
-185 250 -312 169 -226 195 -251 233 -236 33 12 27 57 -20 153 -38 79 -43 98
-34 117 14 31 -16 127 -76 249 -50 100 -210 319 -309 424 -60 64 -215 196
-275 235 -32 20 -85 36 -93 29z"/>
<path d="M6465 6552 c-54 -33 -144 -150 -198 -259 -60 -117 -107 -373 -72
-387 16 -6 34 44 60 169 19 94 97 246 190 370 41 55 73 104 72 109 -6 17 -21
16 -52 -2z"/>
<path d="M3050 6380 c0 -5 -10 -9 -22 -8 -13 1 -43 -11 -68 -27 -25 -16 -46
-28 -47 -27 -8 5 -23 1 -22 -5 5 -31 -9 -46 -73 -84 -40 -23 -106 -62 -147
-86 -41 -24 -76 -41 -78 -39 -3 2 41 50 96 107 56 56 100 103 98 105 -6 6
-181 -98 -227 -135 -114 -90 -157 -156 -125 -191 15 -17 13 -19 -27 -42 -32
-17 -46 -33 -56 -62 -7 -23 -34 -58 -68 -90 -49 -47 -55 -57 -52 -87 2 -26 10
-37 31 -47 25 -12 32 -11 63 7 19 12 46 21 59 21 13 0 36 11 52 24 30 25 232
83 338 96 65 8 256 -3 363 -21 233 -39 494 -129 770 -267 152 -76 290 -171
326 -227 11 -17 25 -25 45 -25 31 0 84 -33 149 -92 35 -32 45 -37 62 -28 46
25 42 156 -8 235 -41 66 -211 275 -291 359 -146 151 -471 423 -594 496 -227
137 -219 133 -287 137 -42 3 -95 -2 -152 -15 -85 -19 -87 -19 -85 -1 1 12 7
17 15 14 7 -2 10 0 7 5 -8 13 -45 13 -45 0z m350 -122 c37 -20 48 -31 38 -40
-2 -1 -48 9 -103 22 -79 19 -95 26 -75 31 48 13 96 9 140 -13z m515 -478 c3
-5 2 -10 -4 -10 -5 0 -13 5 -16 10 -3 6 -2 10 4 10 5 0 13 -4 16 -10z"/>
<path d="M6829 6326 c-63 -26 -145 -74 -201 -118 -21 -16 -38 -25 -38 -19 0 6
1 12 3 14 7 8 -30 33 -47 31 -12 -1 -26 -3 -32 -3 -6 -1 -31 -21 -55 -45 -56
-55 -99 -157 -80 -188 10 -16 10 -19 -1 -13 -10 6 -10 5 -1 -5 9 -10 3 -25
-28 -71 -60 -87 -113 -214 -114 -274 -1 -27 -11 -76 -23 -108 -24 -64 -29
-126 -10 -145 7 -7 13 -56 16 -123 4 -133 12 -159 46 -159 25 0 39 20 30 45
-11 29 5 14 50 -43 73 -96 329 -296 424 -334 32 -12 108 -46 139 -62 12 -6 48
-31 79 -56 37 -29 59 -41 62 -32 3 9 11 7 32 -8 55 -39 64 -23 21 37 -44 61
-120 121 -321 252 -102 66 -219 144 -262 171 -81 54 -213 196 -237 258 -19 46
-9 81 54 185 84 141 130 186 263 252 139 70 202 81 362 65 116 -11 160 -22
202 -52 14 -10 33 -18 40 -18 21 0 48 33 48 57 0 16 5 19 25 15 29 -5 55 13
55 38 0 15 -146 254 -208 340 -40 55 -95 110 -124 126 -39 20 -105 17 -169
-10z m101 -161 c0 -8 -7 -15 -16 -15 -14 0 -14 3 -4 15 7 8 14 15 16 15 2 0 4
-7 4 -15z m134 -246 c-7 -13 -31 -11 -40 2 -9 16 18 30 33 17 7 -6 10 -14 7
-19z"/>
<path d="M2858 6273 c7 -3 16 -2 19 1 4 3 -2 6 -13 5 -11 0 -14 -3 -6 -6z"/>
<path d="M1820 5673 c-66 -33 -116 -101 -124 -166 -2 -23 -9 -122 -14 -220 -9
-156 -8 -182 6 -210 9 -17 15 -46 14 -63 -3 -39 19 -60 46 -45 11 6 22 8 25 5
2 -3 27 -7 53 -10 27 -3 71 -12 98 -20 90 -26 171 -13 284 45 137 70 207 219
157 338 -8 19 -15 47 -15 61 0 39 -67 118 -159 187 -124 94 -172 117 -250 122
-58 4 -73 1 -121 -24z"/>
<path d="M2580 5425 c-18 -22 -10 -33 48 -65 l52 -30 0 24 c0 15 -13 36 -35
55 -40 35 -48 37 -65 16z"/>
<path d="M5784 5395 c-11 -27 3 -107 31 -175 60 -146 187 -295 214 -251 12 19
6 34 -50 116 -25 39 -74 125 -108 192 -63 126 -77 145 -87 118z"/>
<path d="M3090 5330 c0 -17 77 -138 123 -193 24 -29 54 -68 68 -87 18 -26 25
-30 27 -18 8 43 -142 268 -199 299 -13 7 -19 6 -19 -1z"/>
<path d="M5559 5277 c-17 -37 1 -100 62 -218 56 -108 87 -144 118 -134 41 13
34 39 -59 201 -50 88 -95 163 -100 168 -5 5 -14 -1 -21 -17z"/>
<path d="M2757 5213 c-4 -3 -7 -19 -7 -34 0 -21 -7 -32 -29 -43 -63 -33 -96
-98 -123 -243 -14 -78 -1 -128 48 -183 59 -65 127 -84 214 -60 55 15 126 65
140 97 8 17 23 34 34 39 12 5 22 20 24 36 4 31 -59 224 -85 264 -18 28 -173
134 -195 134 -8 0 -18 -3 -21 -7z"/>
<path d="M1338 5144 c-77 -30 -113 -68 -84 -90 21 -15 47 -9 116 29 58 32 100
65 100 79 0 16 -66 7 -132 -18z"/>
<path d="M5304 5106 c-8 -35 35 -120 64 -124 12 -2 22 1 22 7 0 17 -63 141
-72 141 -4 0 -10 -11 -14 -24z"/>
<path d="M2230 4585 c-102 -46 -142 -114 -158 -266 -16 -149 11 -228 112 -331
65 -65 140 -106 212 -114 78 -9 187 11 267 49 120 56 170 123 169 224 0 69
-27 114 -104 178 -34 28 -87 73 -119 102 -33 29 -103 78 -156 109 -108 64
-162 76 -223 49z"/>
<path d="M7002 4561 c-12 -7 -11 -13 1 -37 22 -44 65 -192 92 -316 14 -61 32
-119 40 -128 31 -34 12 -157 -38 -255 -75 -149 -349 -445 -453 -491 -29 -13
-62 -21 -71 -18 -10 3 3 -15 30 -41 26 -25 47 -51 47 -57 0 -6 10 -8 26 -4 24
6 77 49 218 177 79 70 107 89 134 89 51 0 142 125 181 250 63 204 68 396 12
555 -34 96 -48 124 -99 204 -38 58 -63 75 -94 65 -14 -4 -18 -2 -14 5 8 13 6
14 -12 2z"/>
<path d="M6255 4500 c-209 -21 -421 -79 -569 -155 -140 -73 -260 -140 -292
-164 -17 -12 -46 -51 -64 -85 -30 -59 -32 -68 -25 -125 5 -46 12 -64 27 -72
11 -6 78 -15 149 -20 140 -10 248 -29 344 -61 84 -27 204 -87 242 -121 45 -39
83 -48 168 -37 146 18 256 83 411 242 97 99 153 181 153 224 -1 11 2 56 7 101
8 89 3 104 -55 166 -80 87 -274 129 -496 107z"/>
<path d="M3647 4315 c-19 -19 -38 -43 -42 -54 -8 -26 15 -79 55 -124 31 -36
32 -39 19 -70 -9 -20 -14 -69 -14 -127 0 -91 2 -99 47 -202 26 -59 58 -124 71
-145 13 -21 36 -62 51 -90 14 -29 61 -90 104 -135 100 -107 115 -129 145 -213
33 -93 225 -485 275 -560 49 -75 312 -329 374 -361 77 -40 326 -113 424 -124
178 -21 294 2 544 105 124 51 186 90 214 135 5 8 51 58 100 110 50 52 109 122
131 155 79 118 110 157 138 171 28 15 67 68 67 92 0 10 -16 13 -65 10 -40 -1
-69 2 -76 9 -12 12 -38 161 -39 219 0 19 -9 39 -25 54 -23 21 -30 23 -100 17
-41 -4 -94 -11 -118 -16 -23 -5 -80 -15 -127 -21 -90 -12 -221 -50 -282 -81
-21 -11 -48 -19 -62 -19 -14 0 -49 -9 -78 -19 -37 -13 -94 -21 -188 -26 -74
-3 -139 -10 -143 -14 -4 -4 -9 -23 -10 -42 -2 -27 -15 -48 -57 -92 -30 -31
-66 -71 -79 -89 -38 -47 -117 -80 -188 -76 -53 3 -59 6 -80 37 -13 19 -23 46
-23 61 0 15 -8 38 -19 51 -16 21 -71 180 -71 207 0 13 178 21 213 9 47 -16
443 28 647 73 79 17 257 89 270 109 11 18 252 88 490 142 158 35 185 48 158
75 -16 16 -25 16 -130 0 -261 -40 -545 -119 -697 -196 -157 -78 -302 -100
-674 -99 -140 1 -260 -2 -266 -6 -18 -11 -134 17 -191 46 -30 16 -76 37 -101
48 -28 11 -59 35 -75 57 -16 20 -64 76 -108 123 -285 312 -367 532 -244 653
40 39 40 40 34 95 -4 31 -10 61 -14 68 -16 26 -114 105 -131 105 -10 0 -34
-16 -54 -35z m753 -1259 c0 -2 3 -11 6 -20 4 -12 0 -16 -15 -16 -12 0 -21 2
-21 4 0 2 -3 11 -6 20 -4 12 0 16 15 16 12 0 21 -2 21 -4z m638 -634 c15 -10
32 -66 32 -104 0 -34 -24 -48 -82 -48 -45 1 -149 38 -154 55 -4 11 74 74 115
92 30 14 71 16 89 5z"/>
<path d="M4681 3911 c-8 -5 -14 -26 -14 -50 0 -94 135 -156 192 -87 19 23 4
36 -43 36 -57 0 -79 18 -80 66 -1 31 -5 40 -21 42 -11 1 -26 -2 -34 -7z"/>
<path d="M4987 3633 c-16 -15 -5 -51 22 -77 55 -53 166 -54 166 -1 0 16 -8 21
-40 23 -67 4 -85 11 -95 37 -9 24 -38 33 -53 18z"/>
<path d="M6435 3340 c-4 -6 12 -10 42 -9 39 1 43 3 23 9 -36 11 -58 11 -65 0z"/>
<path d="M6672 3193 c-7 -3 -43 -35 -81 -71 -38 -37 -82 -78 -100 -92 -25 -21
-32 -36 -40 -85 -5 -33 -7 -62 -5 -64 2 -3 44 36 92 85 104 106 185 244 134
227z"/>
<path d="M6321 988 c-1 -9 -10 -19 -20 -23 -30 -9 -41 -29 -51 -88 -8 -52 -92
-237 -137 -303 -11 -16 -41 -61 -66 -101 -57 -89 -158 -197 -246 -264 -73 -55
-276 -160 -367 -189 l-59 -19 113 0 114 -1 91 54 c251 148 465 414 567 705 31
87 42 107 60 109 14 2 27 16 37 40 14 33 13 37 -5 51 -11 9 -22 23 -25 31 -4
12 -6 12 -6 -2z"/>
<path d="M6348 314 c-3 -3 17 -42 44 -87 27 -45 65 -115 83 -154 29 -63 37
-73 59 -73 22 0 26 5 26 28 0 36 -43 126 -87 182 -52 66 -113 117 -125 104z"/>
<path d="M3529 271 c-71 -62 -189 -225 -189 -261 0 -5 19 -10 43 -9 42 0 42 0
124 113 90 123 109 157 100 180 -10 25 -31 19 -78 -23z"/>
<path d="M3946 53 c-31 -45 -32 -53 -8 -53 13 0 23 13 32 40 18 54 7 60 -24
13z"/>
</g>
</svg>
